<svg xmlns="http://www.w3.org/2000/svg" class="graphdiagram" viewBox="-2564.8603480801157 -1224.1538449205173 3002.772205836136 1763.244015817583"><g class="layer relationships"><g class="related-pair"><g class="relationship" transform="translate(50.613793103448316,23.455172413793083) rotate(180)"><path class="relationship" d="M 123.957244340072 4 L 531.2208216411807 4 L 531.2208216411807 16 L 563.2208216411807 0 L 531.2208216411807 -16 L 531.2208216411807 -4 L 123.957244340072 -4 Z" fill="rgb(0, 0, 0)" stroke="rgb(51, 51, 51)" stroke-width="0px"/><text class="type" text-anchor="middle" baseline-shift="30%" alignment-baseline="alphabetic" transform="rotate(180)" x="-327.5890329906263" y="0" font-size="50px" font-family="&quot;Gill Sans&quot;, &quot;Gill Sans MT&quot;, Calibri, sans-serif">Has Barbecue</text></g></g><g class="related-pair"><g class="relationship" transform="translate(-1371.7037942399647,73.28164758353391) rotate(-3.919122888908824)"><path class="relationship" d="M 91.41336785442704 4 L 565.2155927835104 4 L 565.2155927835104 16 L 597.2155927835104 0 L 565.2155927835104 -16 L 565.2155927835104 -4 L 91.41336785442704 -4 Z" fill="rgb(0, 0, 0)" stroke="rgb(51, 51, 51)" stroke-width="0px"/><text class="type" text-anchor="middle" baseline-shift="30%" alignment-baseline="alphabetic" x="328.31448031896866" y="0" font-size="50px" font-family="&quot;Gill Sans&quot;, &quot;Gill Sans MT&quot;, Calibri, sans-serif">Used In</text></g></g><g class="related-pair"><g class="relationship" transform="translate(-1185.7014360099013,-489.824587549671) rotate(-162.29864350303302)"><path class="relationship" d="M 148.40351269097215 4 L 803.0698193327275 4 L 803.0698193327275 16 L 835.0698193327275 0 L 803.0698193327275 -16 L 803.0698193327275 -4 L 148.40351269097215 -4 Z" fill="rgb(0, 0, 0)" stroke="rgb(51, 51, 51)" stroke-width="0px"/><text class="type" text-anchor="middle" baseline-shift="30%" alignment-baseline="alphabetic" transform="rotate(180)" x="-475.7366660118499" y="0" font-size="50px" font-family="&quot;Gill Sans&quot;, &quot;Gill Sans MT&quot;, Calibri, sans-serif">Uses Surface</text></g></g><g class="related-pair"><g class="relationship" transform="translate(-1185.7014360099013,-489.824587549671) rotate(-19.497735700015916)"><path class="relationship" d="M 148.40351269097215 4 L 781.3104591634288 4 L 781.3104591634288 16 L 813.3104591634288 0 L 781.3104591634288 -16 L 781.3104591634288 -4 L 148.40351269097215 -4 Z" fill="rgb(0, 0, 0)" stroke="rgb(51, 51, 51)" stroke-width="0px"/><text class="type" text-anchor="middle" baseline-shift="30%" alignment-baseline="alphabetic" x="464.85698592720047" y="0" font-size="50px" font-family="&quot;Gill Sans&quot;, &quot;Gill Sans MT&quot;, Calibri, sans-serif">Uses Fuel</text></g></g><g class="related-pair"><g class="relationship" transform="translate(-1371.7037942399647,73.28164758353391) rotate(176.47494517207733)"><path class="relationship" d="M 91.41336785442704 4 L 685.5172441733001 4 L 685.5172441733001 16 L 717.5172441733001 0 L 685.5172441733001 -16 L 685.5172441733001 -4 L 91.41336785442704 -4 Z" fill="rgb(0, 0, 0)" stroke="rgb(51, 51, 51)" stroke-width="0px"/><text class="type" text-anchor="middle" baseline-shift="30%" alignment-baseline="alphabetic" x="-388.4653060138636" y="0" font-size="50px" font-family="&quot;Gill Sans&quot;, &quot;Gill Sans MT&quot;, Calibri, sans-serif" transform="rotate(180)">Is Diet Type</text></g></g><g class="related-pair"><g class="relationship" transform="translate(-1185.7014360099013,-489.824587549671) rotate(43.47793030562242)"><path class="relationship" d="M 148.40351269097215 4 L 582.1717439328597 4 L 582.1717439328597 16 L 614.1717439328597 0 L 582.1717439328597 -16 L 582.1717439328597 -4 L 148.40351269097215 -4 Z" fill="rgb(0, 0, 0)" stroke="rgb(51, 51, 51)" stroke-width="0px"/><text class="type" text-anchor="middle" baseline-shift="30%" alignment-baseline="alphabetic" x="365.2876283119159" y="0" font-size="50px" font-family="&quot;Gill Sans&quot;, &quot;Gill Sans MT&quot;, Calibri, sans-serif">Used By</text></g></g></g><g class="layer nodes"><circle class="node node-id-0" r="108.957244340072" fill="rgb(255, 255, 255)" stroke="rgb(0, 0, 0)" stroke-width="8px" cx="50.613793103448316" cy="23.455172413793083"/><circle class="node node-id-1" r="116.79297146226725" fill="rgb(255, 255, 255)" stroke="rgb(0, 0, 0)" stroke-width="8px" cx="-644.3999999999996" cy="23.455172413793083"/><circle class="node node-id-2" r="76.41336785442704" fill="rgb(255, 255, 255)" stroke="rgb(0, 0, 0)" stroke-width="8px" cx="-1371.7037942399647" cy="73.28164758353391"/><circle class="node node-id-3" r="133.40351269097215" fill="rgb(255, 255, 255)" stroke="rgb(0, 0, 0)" stroke-width="8px" cx="-1185.7014360099013" cy="-489.824587549671"/><circle class="node node-id-4" r="133.40351269097215" fill="rgb(255, 255, 255)" stroke="rgb(0, 0, 0)" stroke-width="8px" cx="-2122.611517881197" cy="-788.8551767704399"/><circle class="node node-id-5" r="67.60871265564641" fill="rgb(255, 255, 255)" stroke="rgb(0, 0, 0)" stroke-width="8px" cx="-341.1590337924297" cy="-788.8551767704399"/><circle class="node node-id-6" r="99.76128423313288" fill="rgb(255, 255, 255)" stroke="rgb(0, 0, 0)" stroke-width="8px" cx="-2202.407657596983" cy="124.4542989717681"/><g class="caption"><text class="caption node" text-anchor="middle" alignment-baseline="central" x="50.613793103448316" y="23.455172413793083" fill="rgb(51, 51, 51)" font-size="50px" font-family="&quot;Gill Sans&quot;, &quot;Gill Sans MT&quot;, Calibri, sans-serif">Country</text></g><g class="caption"><text class="caption node" text-anchor="middle" alignment-baseline="central" x="-644.3999999999996" y="23.455172413793083" fill="rgb(51, 51, 51)" font-size="50px" font-family="&quot;Gill Sans&quot;, &quot;Gill Sans MT&quot;, Calibri, sans-serif">Barbecue</text></g><g class="caption"><text class="caption node" text-anchor="middle" alignment-baseline="central" x="-1371.7037942399647" y="73.28164758353391" fill="rgb(51, 51, 51)" font-size="50px" font-family="&quot;Gill Sans&quot;, &quot;Gill Sans MT&quot;, Calibri, sans-serif">Food</text></g><g class="caption"><text class="caption node" text-anchor="middle" alignment-baseline="central" x="-1185.7014360099013" y="-514.8245875496709" fill="rgb(51, 51, 51)" font-size="50px" font-family="&quot;Gill Sans&quot;, &quot;Gill Sans MT&quot;, Calibri, sans-serif">Cooking</text><text class="caption node" text-anchor="middle" alignment-baseline="central" x="-1185.7014360099013" y="-464.824587549671" fill="rgb(51, 51, 51)" font-size="50px" font-family="&quot;Gill Sans&quot;, &quot;Gill Sans MT&quot;, Calibri, sans-serif">type</text></g><g class="caption"><text class="caption node" text-anchor="middle" alignment-baseline="central" x="-2122.611517881197" y="-813.8551767704399" fill="rgb(51, 51, 51)" font-size="50px" font-family="&quot;Gill Sans&quot;, &quot;Gill Sans MT&quot;, Calibri, sans-serif">Cooking</text><text class="caption node" text-anchor="middle" alignment-baseline="central" x="-2122.611517881197" y="-763.8551767704399" fill="rgb(51, 51, 51)" font-size="50px" font-family="&quot;Gill Sans&quot;, &quot;Gill Sans MT&quot;, Calibri, sans-serif">surface</text></g><g class="caption"><text class="caption node" text-anchor="middle" alignment-baseline="central" x="-341.1590337924297" y="-788.8551767704399" fill="rgb(51, 51, 51)" font-size="50px" font-family="&quot;Gill Sans&quot;, &quot;Gill Sans MT&quot;, Calibri, sans-serif">Fuel</text></g><g class="caption"><text class="caption node" text-anchor="middle" alignment-baseline="central" x="-2202.407657596983" y="124.4542989717681" fill="rgb(51, 51, 51)" font-size="50px" font-family="&quot;Gill Sans&quot;, &quot;Gill Sans MT&quot;, Calibri, sans-serif">Dietary</text></g></g><g class="layer properties"><g class="speech-bubble node-speech-bubble" transform="translate(159.5710374435203,23.455172413793083) "><path class="speech-bubble-outline" transform="scale(1,1) " d="M 0 0 L 20 -10 L 20 -25 A 10 10 0 0 1 30 -35 L 266.8408203125 -35 A 10 10 0 0 1 276.8408203125 -25 L 276.8408203125 25 A 10 10 0 0 1 266.8408203125 35 L 30 35 A 10 10 0 0 1 20 25 L 20 10 Z" fill="rgb(255, 255, 255)" stroke="rgb(0, 0, 0)" stroke-width="3px"/><text class="speech-bubble-content property-key" x="163.69140625" y="0" alignment-baseline="central" text-anchor="end" font-size="50px" font-family="&quot;Gill Sans&quot;, &quot;Gill Sans MT&quot;, Calibri, sans-serif" xml:space="preserve">name: </text><text class="speech-bubble-content property-value" x="163.69140625" y="0" alignment-baseline="central" font-size="50px" font-family="&quot;Gill Sans&quot;, &quot;Gill Sans MT&quot;, Calibri, sans-serif">value</text></g><g class="speech-bubble node-speech-bubble" transform="translate(-644.3999999999996,140.24814387606034) "><path class="speech-bubble-outline" transform="scale(1,1) " d="M 0 0 L -10 20 L -107.75146484375 20 A 10 10 0 0 0 -117.75146484375 30 L -117.75146484375 80 A 10 10 0 0 0 -107.75146484375 90 L 107.75146484375 90 A 10 10 0 0 0 117.75146484375 80 L 117.75146484375 30 A 10 10 0 0 0 107.75146484375 20 L 10 20 Z" fill="rgb(255, 255, 255)" stroke="rgb(0, 0, 0)" stroke-width="3px"/><text class="speech-bubble-content property-key" x="4.60205078125" y="55" alignment-baseline="central" text-anchor="end" font-size="50px" font-family="&quot;Gill Sans&quot;, &quot;Gill Sans MT&quot;, Calibri, sans-serif" xml:space="preserve">type: </text><text class="speech-bubble-content property-value" x="4.60205078125" y="55" alignment-baseline="central" font-size="50px" font-family="&quot;Gill Sans&quot;, &quot;Gill Sans MT&quot;, Calibri, sans-serif">value</text></g><g class="speech-bubble node-speech-bubble" transform="translate(-1371.7037942399647,149.69501543796093) "><path class="speech-bubble-outline" transform="scale(1,1) " d="M 0 0 L -10 20 L -118.42041015625 20 A 10 10 0 0 0 -128.42041015625 30 L -128.42041015625 80 A 10 10 0 0 0 -118.42041015625 90 L 118.42041015625 90 A 10 10 0 0 0 128.42041015625 80 L 128.42041015625 30 A 10 10 0 0 0 118.42041015625 20 L 10 20 Z" fill="rgb(255, 255, 255)" stroke="rgb(0, 0, 0)" stroke-width="3px"/><text class="speech-bubble-content property-key" x="15.27099609375" y="55" alignment-baseline="central" text-anchor="end" font-size="50px" font-family="&quot;Gill Sans&quot;, &quot;Gill Sans MT&quot;, Calibri, sans-serif" xml:space="preserve">name: </text><text class="speech-bubble-content property-value" x="15.27099609375" y="55" alignment-baseline="central" font-size="50px" font-family="&quot;Gill Sans&quot;, &quot;Gill Sans MT&quot;, Calibri, sans-serif">value</text></g><g class="speech-bubble node-speech-bubble" transform="translate(-1185.7014360099013,-623.2281002406431) "><path class="speech-bubble-outline" transform="scale(1,-1) " d="M 0 0 L -10 20 L -107.75146484375 20 A 10 10 0 0 0 -117.75146484375 30 L -117.75146484375 80 A 10 10 0 0 0 -107.75146484375 90 L 107.75146484375 90 A 10 10 0 0 0 117.75146484375 80 L 117.75146484375 30 A 10 10 0 0 0 107.75146484375 20 L 10 20 Z" fill="rgb(255, 255, 255)" stroke="rgb(0, 0, 0)" stroke-width="3px"/><text class="speech-bubble-content property-key" x="4.60205078125" y="-55" alignment-baseline="central" text-anchor="end" font-size="50px" font-family="&quot;Gill Sans&quot;, &quot;Gill Sans MT&quot;, Calibri, sans-serif" xml:space="preserve">type: </text><text class="speech-bubble-content property-value" x="4.60205078125" y="-55" alignment-baseline="central" font-size="50px" font-family="&quot;Gill Sans&quot;, &quot;Gill Sans MT&quot;, Calibri, sans-serif">value</text></g><g class="speech-bubble node-speech-bubble" transform="translate(-2256.015030572169,-788.8551767704399) "><path class="speech-bubble-outline" transform="scale(-1,1) " d="M 0 0 L 20 -10 L 20 -25 A 10 10 0 0 1 30 -35 L 251.19140625 -35 A 10 10 0 0 1 261.19140625 -25 L 261.19140625 25 A 10 10 0 0 1 251.19140625 35 L 30 35 A 10 10 0 0 1 20 25 L 20 10 Z" fill="rgb(255, 255, 255)" stroke="rgb(0, 0, 0)" stroke-width="3px"/><text class="speech-bubble-content property-key" x="-138.837890625" y="0" alignment-baseline="central" text-anchor="end" font-size="50px" font-family="&quot;Gill Sans&quot;, &quot;Gill Sans MT&quot;, Calibri, sans-serif" xml:space="preserve">type: </text><text class="speech-bubble-content property-value" x="-138.837890625" y="0" alignment-baseline="central" font-size="50px" font-family="&quot;Gill Sans&quot;, &quot;Gill Sans MT&quot;, Calibri, sans-serif">name</text></g><g class="speech-bubble node-speech-bubble" transform="translate(-273.5503211367833,-788.8551767704399) "><path class="speech-bubble-outline" transform="scale(1,1) " d="M 0 0 L 20 -10 L 20 -25 A 10 10 0 0 1 30 -35 L 245.5029296875 -35 A 10 10 0 0 1 255.5029296875 -25 L 255.5029296875 25 A 10 10 0 0 1 245.5029296875 35 L 30 35 A 10 10 0 0 1 20 25 L 20 10 Z" fill="rgb(255, 255, 255)" stroke="rgb(0, 0, 0)" stroke-width="3px"/><text class="speech-bubble-content property-key" x="142.353515625" y="0" alignment-baseline="central" text-anchor="end" font-size="50px" font-family="&quot;Gill Sans&quot;, &quot;Gill Sans MT&quot;, Calibri, sans-serif" xml:space="preserve">type: </text><text class="speech-bubble-content property-value" x="142.353515625" y="0" alignment-baseline="central" font-size="50px" font-family="&quot;Gill Sans&quot;, &quot;Gill Sans MT&quot;, Calibri, sans-serif">value</text></g><g class="speech-bubble node-speech-bubble" transform="translate(-2302.1689418301157,124.4542989717681) "><path class="speech-bubble-outline" transform="scale(-1,1) " d="M 0 0 L 20 -10 L 20 -25 A 10 10 0 0 1 30 -35 L 251.19140625 -35 A 10 10 0 0 1 261.19140625 -25 L 261.19140625 25 A 10 10 0 0 1 251.19140625 35 L 30 35 A 10 10 0 0 1 20 25 L 20 10 Z" fill="rgb(255, 255, 255)" stroke="rgb(0, 0, 0)" stroke-width="3px"/><text class="speech-bubble-content property-key" x="-138.837890625" y="0" alignment-baseline="central" text-anchor="end" font-size="50px" font-family="&quot;Gill Sans&quot;, &quot;Gill Sans MT&quot;, Calibri, sans-serif" xml:space="preserve">type: </text><text class="speech-bubble-content property-value" x="-138.837890625" y="0" alignment-baseline="central" font-size="50px" font-family="&quot;Gill Sans&quot;, &quot;Gill Sans MT&quot;, Calibri, sans-serif">name</text></g></g><g class="layer overlay"><circle class="node overlay" r="112.957244340072" stroke="none" fill="rgba(255, 255, 255, 0)" cx="50.613793103448316" cy="23.455172413793083"/><circle class="node overlay" r="120.79297146226725" stroke="none" fill="rgba(255, 255, 255, 0)" cx="-644.3999999999996" cy="23.455172413793083"/><circle class="node overlay" r="80.41336785442704" stroke="none" fill="rgba(255, 255, 255, 0)" cx="-1371.7037942399647" cy="73.28164758353391"/><circle class="node overlay" r="137.40351269097215" stroke="none" fill="rgba(255, 255, 255, 0)" cx="-1185.7014360099013" cy="-489.824587549671"/><circle class="node overlay" r="137.40351269097215" stroke="none" fill="rgba(255, 255, 255, 0)" cx="-2122.611517881197" cy="-788.8551767704399"/><circle class="node overlay" r="71.60871265564641" stroke="none" fill="rgba(255, 255, 255, 0)" cx="-341.1590337924297" cy="-788.8551767704399"/><circle class="node overlay" r="103.76128423313288" stroke="none" fill="rgba(255, 255, 255, 0)" cx="-2202.407657596983" cy="124.4542989717681"/><circle class="node ring" r="117.957244340072" fill="none" stroke="rgba(255, 255, 255, 0)" stroke-width="10px" cx="50.613793103448316" cy="23.455172413793083"/><circle class="node ring" r="125.79297146226725" fill="none" stroke="rgba(255, 255, 255, 0)" stroke-width="10px" cx="-644.3999999999996" cy="23.455172413793083"/><circle class="node ring" r="85.41336785442704" fill="none" stroke="rgba(255, 255, 255, 0)" stroke-width="10px" cx="-1371.7037942399647" cy="73.28164758353391"/><circle class="node ring" r="142.40351269097215" fill="none" stroke="rgba(255, 255, 255, 0)" stroke-width="10px" cx="-1185.7014360099013" cy="-489.824587549671"/><circle class="node ring" r="142.40351269097215" fill="none" stroke="rgba(255, 255, 255, 0)" stroke-width="10px" cx="-2122.611517881197" cy="-788.8551767704399"/><circle class="node ring" r="76.60871265564641" fill="none" stroke="rgba(255, 255, 255, 0)" stroke-width="10px" cx="-341.1590337924297" cy="-788.8551767704399"/><circle class="node ring" r="108.76128423313288" fill="none" stroke="rgba(255, 255, 255, 0)" stroke-width="10px" cx="-2202.407657596983" cy="124.4542989717681"/><path class="relationship overlay" fill="rgba(255, 255, 255, 0)" stroke="rgba(255, 255, 255, 0)" stroke-width="10px" transform="translate(50.613793103448316,23.455172413793083) rotate(180)" d="M 123.957244340072 4 L 531.2208216411807 4 L 531.2208216411807 16 L 563.2208216411807 0 L 531.2208216411807 -16 L 531.2208216411807 -4 L 123.957244340072 -4 Z"/><path class="relationship overlay" fill="rgba(255, 255, 255, 0)" stroke="rgba(255, 255, 255, 0)" stroke-width="10px" transform="translate(-1371.7037942399647,73.28164758353391) rotate(-3.919122888908824)" d="M 91.41336785442704 4 L 565.2155927835104 4 L 565.2155927835104 16 L 597.2155927835104 0 L 565.2155927835104 -16 L 565.2155927835104 -4 L 91.41336785442704 -4 Z"/><path class="relationship overlay" fill="rgba(255, 255, 255, 0)" stroke="rgba(255, 255, 255, 0)" stroke-width="10px" transform="translate(-1185.7014360099013,-489.824587549671) rotate(-162.29864350303302)" d="M 148.40351269097215 4 L 803.0698193327275 4 L 803.0698193327275 16 L 835.0698193327275 0 L 803.0698193327275 -16 L 803.0698193327275 -4 L 148.40351269097215 -4 Z"/><path class="relationship overlay" fill="rgba(255, 255, 255, 0)" stroke="rgba(255, 255, 255, 0)" stroke-width="10px" transform="translate(-1185.7014360099013,-489.824587549671) rotate(-19.497735700015916)" d="M 148.40351269097215 4 L 781.3104591634288 4 L 781.3104591634288 16 L 813.3104591634288 0 L 781.3104591634288 -16 L 781.3104591634288 -4 L 148.40351269097215 -4 Z"/><path class="relationship overlay" fill="rgba(255, 255, 255, 0)" stroke="rgba(255, 255, 255, 0)" stroke-width="10px" transform="translate(-1371.7037942399647,73.28164758353391) rotate(176.47494517207733)" d="M 91.41336785442704 4 L 685.5172441733001 4 L 685.5172441733001 16 L 717.5172441733001 0 L 685.5172441733001 -16 L 685.5172441733001 -4 L 91.41336785442704 -4 Z"/><path class="relationship overlay" fill="rgba(255, 255, 255, 0)" stroke="rgba(255, 255, 255, 0)" stroke-width="10px" transform="translate(-1185.7014360099013,-489.824587549671) rotate(43.47793030562242)" d="M 148.40351269097215 4 L 582.1717439328597 4 L 582.1717439328597 16 L 614.1717439328597 0 L 582.1717439328597 -16 L 582.1717439328597 -4 L 148.40351269097215 -4 Z"/></g></svg>